<svg xmlns="http://www.w3.org/2000/svg" width="512" height="512" viewBox="0 0 512 512">
<g>
<path d="M 204.72 451.42 C201.57,449.46 199.00,447.38 199.00,446.80 C199.00,446.23 201.27,441.83 204.04,437.02 C216.14,416.07 225.94,387.74 227.93,368.00 C229.54,352.05 226.57,339.73 216.47,320.50 C204.49,297.66 204.18,291.31 214.06,271.90 C230.64,239.37 236.10,226.73 240.96,209.62 C246.55,189.98 247.78,179.20 245.55,169.57 C244.02,162.96 239.46,153.00 237.96,153.00 C237.57,153.00 235.34,157.61 233.01,163.25 C225.82,180.64 200.38,230.71 199.28,229.62 C199.10,229.44 200.35,226.19 202.07,222.39 C210.86,202.90 222.02,172.84 228.58,151.00 C232.81,136.88 234.13,123.94 231.98,117.45 C230.66,113.44 223.58,105.00 221.53,105.00 C220.86,105.00 219.76,106.91 219.08,109.25 C215.85,120.29 204.71,146.41 195.51,164.50 C186.12,182.97 171.01,210.16 168.84,212.49 C168.33,213.04 171.75,205.51 176.44,195.76 C194.47,158.31 206.87,124.54 212.38,97.93 C213.98,90.20 213.22,84.36 210.32,82.25 C206.59,79.52 201.09,78.56 196.36,79.83 C189.56,81.64 187.00,83.70 186.98,87.37 C186.94,92.70 183.33,107.22 179.71,116.60 C171.00,139.14 158.04,159.90 127.67,200.00 C116.50,214.74 113.36,218.56 116.23,213.92 C147.28,163.70 161.07,136.19 168.99,108.66 C176.20,83.56 175.09,72.00 165.47,72.00 C156.84,72.00 149.45,78.19 135.02,97.50 C120.70,116.65 112.23,129.31 92.62,160.86 L 74.99 189.23 L 76.97 202.86 C81.09,231.10 81.57,270.05 78.15,298.43 L 77.37 304.93 L 81.93 305.52 C95.51,307.28 108.29,314.05 121.50,326.50 L 128.50 333.09 L 120.05 326.56 C104.94,314.90 92.92,310.00 79.36,310.00 L 72.50 310.00 L 72.44 277.25 C72.38,242.15 71.56,232.56 66.39,206.50 C61.36,181.21 56.17,169.08 48.35,164.34 C43.29,161.28 39.67,161.33 37.17,164.51 C34.17,168.32 33.14,174.66 32.01,196.00 C30.47,225.08 24.54,275.99 17.03,324.50 C13.59,346.76 14.31,351.98 23.35,370.38 C29.08,382.06 45.28,409.52 54.96,423.98 C58.10,428.67 62.31,435.08 64.31,438.23 L 67.95 443.96 L 61.90 448.07 C58.57,450.33 55.72,452.03 55.57,451.84 C51.32,446.64 28.54,410.37 18.00,392.01 C1.06,362.51 -2.05,350.51 1.44,328.00 C10.41,270.04 15.07,230.36 17.46,191.58 C19.01,166.50 20.23,161.29 26.19,154.53 C34.66,144.90 46.94,144.82 60.37,154.29 C61.95,155.40 64.93,158.92 66.99,162.11 L 70.74 167.91 L 81.07 151.20 C102.87,115.96 125.11,84.30 136.75,71.93 C149.78,58.08 163.59,53.63 175.48,59.45 C178.49,60.92 181.85,63.27 182.95,64.67 C184.88,67.12 185.13,67.17 189.96,66.01 C210.21,61.15 225.98,69.75 227.72,86.61 C228.03,89.58 228.63,92.00 229.06,92.00 C231.52,92.00 241.28,102.81 244.23,108.81 C247.39,115.23 247.50,115.89 247.56,128.13 C247.61,140.28 247.72,140.94 250.28,144.30 C251.75,146.23 253.49,148.98 254.14,150.40 C255.63,153.67 256.37,153.67 257.86,150.40 C258.51,148.98 260.25,146.22 261.73,144.29 C264.31,140.90 264.42,140.27 264.46,128.12 C264.50,115.89 264.61,115.25 267.77,108.81 C270.81,102.65 280.50,92.00 283.08,92.00 C283.59,92.00 284.01,90.09 284.02,87.75 C284.07,79.17 290.00,70.82 298.96,66.75 C304.11,64.41 314.04,64.09 322.04,66.01 C326.87,67.17 327.12,67.12 329.05,64.67 C330.15,63.27 333.51,60.92 336.52,59.45 C348.41,53.63 362.22,58.08 375.25,71.93 C386.89,84.30 409.13,115.96 430.93,151.20 L 441.26 167.91 L 445.01 162.11 C447.07,158.92 450.05,155.40 451.63,154.29 C465.06,144.82 477.34,144.90 485.81,154.53 C491.85,161.38 492.99,166.39 494.61,193.00 C496.70,227.38 502.42,275.87 510.55,328.00 C514.06,350.48 510.95,362.49 494.00,392.01 C483.46,410.37 460.68,446.64 456.43,451.84 C456.28,452.03 453.43,450.33 450.10,448.07 L 444.05 443.96 L 447.69 438.23 C449.69,435.08 453.90,428.67 457.04,423.98 C466.72,409.52 482.92,382.06 488.65,370.38 C497.69,351.98 498.41,346.76 494.97,324.50 C486.86,272.05 481.24,222.48 479.44,187.53 C478.23,163.96 474.16,157.98 463.65,164.34 C455.88,169.04 451.35,179.39 446.08,204.50 C440.60,230.61 439.55,242.31 439.52,277.75 L 439.50 310.00 L 432.64 310.00 C419.08,310.00 407.06,314.90 391.95,326.56 L 383.50 333.09 L 390.50 326.51 C403.62,314.16 414.71,308.04 427.70,305.97 C431.41,305.38 434.52,304.80 434.60,304.70 C434.69,304.59 434.39,301.80 433.93,298.50 C430.42,273.35 430.91,231.15 435.03,202.86 L 437.01 189.22 L 419.40 160.86 C385.20,105.80 364.17,77.90 353.51,73.44 C348.08,71.17 343.32,71.59 340.31,74.60 C337.75,77.16 337.72,77.36 338.35,87.35 C340.10,115.04 352.20,143.81 382.78,193.00 C389.11,203.18 394.98,212.62 395.82,214.00 C398.97,219.10 394.88,214.01 381.36,196.00 C344.32,146.65 329.94,120.06 325.96,93.50 C324.36,82.86 324.68,83.55 320.45,81.54 C314.54,78.74 309.89,78.51 304.76,80.78 C297.94,83.80 297.18,87.06 300.38,99.68 C305.97,121.70 325.66,173.47 339.63,202.90 C343.14,210.27 346.00,216.57 346.00,216.90 C345.99,217.90 336.39,201.59 327.25,185.09 C312.73,158.85 297.79,125.83 292.93,109.25 C292.24,106.91 291.31,105.00 290.84,105.00 C290.38,105.00 288.23,106.60 286.06,108.56 C275.38,118.22 276.53,133.10 291.20,175.00 C295.72,187.91 305.24,211.98 309.91,222.34 C311.61,226.11 313.00,229.48 312.99,229.84 C312.96,232.95 285.73,179.66 278.97,163.25 C276.65,157.61 274.38,153.00 273.93,153.00 C272.41,153.00 267.17,165.42 266.05,171.70 C264.75,178.90 265.84,190.11 269.05,202.60 C274.26,222.87 280.20,237.12 297.93,271.90 C307.65,290.97 307.42,298.05 296.40,318.69 C286.64,336.96 283.88,346.30 283.87,361.00 C283.87,380.97 293.92,412.70 307.96,437.02 C310.73,441.83 313.00,446.20 313.00,446.75 C313.00,447.69 308.00,451.35 303.34,453.83 C301.33,454.90 300.86,454.43 296.62,447.21 C285.18,427.69 275.06,401.42 270.94,380.53 C269.18,371.62 268.87,367.20 269.24,357.03 C269.82,341.39 272.30,333.18 282.27,313.71 C292.65,293.47 292.69,294.33 280.23,269.75 C270.60,250.76 262.02,230.74 258.38,218.75 C257.42,215.59 256.35,213.00 256.00,213.00 C255.65,213.00 254.58,215.59 253.62,218.75 C249.98,230.74 241.40,250.76 231.77,269.75 C219.33,294.28 219.38,293.32 229.72,313.62 C239.73,333.27 242.18,341.42 242.76,357.03 C243.13,367.20 242.82,371.62 241.06,380.53 C236.94,401.42 226.82,427.69 215.37,447.22 C212.86,451.50 210.73,455.00 210.62,455.00 C210.52,455.00 207.86,453.39 204.72,451.42 Z" fill="rgba(0,0,0,1)"/>
</g>
</svg>