<svg xmlns="http://www.w3.org/2000/svg" viewBox="0 0 200 200" width="100%" height="100%">
  <g fill="none" stroke="#10B981" stroke-width="14" stroke-linecap="round" stroke-linejoin="round">
    
    <path d="M 65 20 L 135 20 A 35 35 0 0 1 170 55 L 170 85 C 170 120 150 130 140 155 A 40 40 0 0 1 60 155 C 50 130 30 120 30 85 L 30 55 A 35 35 0 0 1 65 20 Z" />

    <rect x="46" y="44" width="108" height="48" rx="10" />

    <rect x="63" y="58" width="6" height="20" rx="3" />
    
    <rect x="131" y="58" width="6" height="20" rx="3" />

    <circle cx="100" cy="155" r="16" />

    <circle cx="140" cy="115" r="2" />
    
  </g>
</svg>
